REM Ripping Tool: trurip

FILE "Lord of Wars (1991)(SystemSoft)(JP).img" BINARY
  TRACK 01 AUDIO
    INDEX 01 00:00:00
  TRACK 02 MODE1/2352
    INDEX 00 00:44:65
    INDEX 01 00:47:65
  TRACK 03 AUDIO
    INDEX 00 01:04:51
    INDEX 01 01:06:51
  TRACK 04 AUDIO
    INDEX 01 04:58:39
  TRACK 05 AUDIO
    INDEX 01 10:58:19
  TRACK 06 AUDIO
    INDEX 01 17:24:69
  TRACK 07 AUDIO
    INDEX 01 23:50:07
  TRACK 08 AUDIO
    INDEX 01 24:29:43
  TRACK 09 AUDIO
    INDEX 01 24:49:48
  TRACK 10 AUDIO
    INDEX 01 26:58:49

REM DISC HASHES
REM CRC32 : 5947d5fd
REM MD5   : 3b9923af0cf94515026452f06550bc5f
REM SHA1  : cc6c2909efc296aad87e313d59edb3fa65eab26e

REM Gap Append Method: Prev [crc32]
REM Trk 01: ccd25d2f
REM Trk 02: 10068d5c
REM Trk 03: efbbb8de
REM Trk 04: b7d9e7b6
REM Trk 05: a48a0407
REM Trk 06: fc1b2609
REM Trk 07: 1a9926b1
REM Trk 08: 5f1a6eba
REM Trk 09: 2c582bbe
REM Trk 10: b0aedb4b

REM Gap Append Method: Prev [md5]
REM Trk 01: 7938d9aa88f644b60389fa8246f2052e
REM Trk 02: f6c9713e9d357e4cd54ce031d5bfd850
REM Trk 03: 5e0e7af4529301f1dc55b726ed84ba15
REM Trk 04: eb77376f4ca3c06ef4f7a7444271c51b
REM Trk 05: 685680be428df34c7c88b08bad82a476
REM Trk 06: 6b93dbc33b43b81da77d1925f7680859
REM Trk 07: e5598c00c6440d6073841b1ee72067f9
REM Trk 08: ed1b501f77efada38842b0ad7c236c6f
REM Trk 09: ecb1d72dd759d1940e7b05c36455f524
REM Trk 10: 82839a59092e6998c4d1ba0a9cc64c1c

REM Gap Append Method: Prev [sha1]
REM Trk 01: 0fc7f8840f23f43ebfb7041f71427c165f368105
REM Trk 02: b6a6f04078eb8cef2a0630495bdf94f30f2d7928
REM Trk 03: e02b37345b72cd027c449b12dafbf88e21e71e9a
REM Trk 04: 6a7ec5842965f88f357f2976db17a18fcbb2927e
REM Trk 05: af0b2ca0fd79827ad874cf892a4390e8cfcbfb30
REM Trk 06: e63b71e1d082ef0a0b4badc3932fadef81ebc441
REM Trk 07: 115166587d7ca8484cb567c23d5c3d1601520f40
REM Trk 08: 984f58a2dc3b7107d3efaa4938141fd1584617d7
REM Trk 09: 97fd79ff94d54c0be757ff07d38f5cdd78ad07f1
REM Trk 10: 535c44b1a6ef3920a1f21bcff33823e969f77304

REM Gap Append Method: None [crc32]
REM Trk 01: b979500c
REM Trk 02: 94de2f24
REM Trk 03: efbbb8de
REM Trk 04: b7d9e7b6
REM Trk 05: a48a0407
REM Trk 06: fc1b2609
REM Trk 07: 1a9926b1
REM Trk 08: 5f1a6eba
REM Trk 09: 2c582bbe
REM Trk 10: b0aedb4b
REM Gap 02: 16e86594
REM Gap 03: 7abe247f

REM Gap Append Method: None [md5]
REM Trk 01: a25a2c129b7100092cc40e9b6e176a63
REM Trk 02: 8f3e2f5ad952f7beea8439d38658c6e8
REM Trk 03: 5e0e7af4529301f1dc55b726ed84ba15
REM Trk 04: eb77376f4ca3c06ef4f7a7444271c51b
REM Trk 05: 685680be428df34c7c88b08bad82a476
REM Trk 06: 6b93dbc33b43b81da77d1925f7680859
REM Trk 07: e5598c00c6440d6073841b1ee72067f9
REM Trk 08: ed1b501f77efada38842b0ad7c236c6f
REM Trk 09: ecb1d72dd759d1940e7b05c36455f524
REM Trk 10: 82839a59092e6998c4d1ba0a9cc64c1c
REM Gap 02: fbd314ec9876f082e173fbb5baf092aa
REM Gap 03: 9df204fbc98bb8965081cb30a89715fc

REM Gap Append Method: None [sha1]
REM Trk 01: 9ac3f1a11d434d186466917f1c7955bf7670c910
REM Trk 02: 1b9386a163ae3528bf06d4e6317c6c05782d121b
REM Trk 03: e02b37345b72cd027c449b12dafbf88e21e71e9a
REM Trk 04: 6a7ec5842965f88f357f2976db17a18fcbb2927e
REM Trk 05: af0b2ca0fd79827ad874cf892a4390e8cfcbfb30
REM Trk 06: e63b71e1d082ef0a0b4badc3932fadef81ebc441
REM Trk 07: 115166587d7ca8484cb567c23d5c3d1601520f40
REM Trk 08: 984f58a2dc3b7107d3efaa4938141fd1584617d7
REM Trk 09: 97fd79ff94d54c0be757ff07d38f5cdd78ad07f1
REM Trk 10: 535c44b1a6ef3920a1f21bcff33823e969f77304
REM Gap 02: 08a9af7bae10b281a8edaad6e9ea6cd1646d0ce0
REM Gap 03: cbe29e0bd725ef1194f8c47619dd42078e841de2

REM Gap Append Method: Next [crc32]
REM Trk 01: b979500c
REM Trk 02: 70c00729
REM Trk 03: 8c8d3c83
REM Trk 04: b7d9e7b6
REM Trk 05: a48a0407
REM Trk 06: fc1b2609
REM Trk 07: 1a9926b1
REM Trk 08: 5f1a6eba
REM Trk 09: 2c582bbe
REM Trk 10: b0aedb4b

REM Gap Append Method: Next [md5]
REM Trk 01: a25a2c129b7100092cc40e9b6e176a63
REM Trk 02: 2da729f89d5f891a8bf050a3b3d88089
REM Trk 03: c7d449bb3cc1f1d2d1a2507c02270abc
REM Trk 04: eb77376f4ca3c06ef4f7a7444271c51b
REM Trk 05: 685680be428df34c7c88b08bad82a476
REM Trk 06: 6b93dbc33b43b81da77d1925f7680859
REM Trk 07: e5598c00c6440d6073841b1ee72067f9
REM Trk 08: ed1b501f77efada38842b0ad7c236c6f
REM Trk 09: ecb1d72dd759d1940e7b05c36455f524
REM Trk 10: 82839a59092e6998c4d1ba0a9cc64c1c

REM Gap Append Method: Next [sha1]
REM Trk 01: 9ac3f1a11d434d186466917f1c7955bf7670c910
REM Trk 02: 76ac059b49ca8a926bed6f2d2210b971474157ab
REM Trk 03: 9f3af7a4e3c27c568e7ac195ed095e3292f52c00
REM Trk 04: 6a7ec5842965f88f357f2976db17a18fcbb2927e
REM Trk 05: af0b2ca0fd79827ad874cf892a4390e8cfcbfb30
REM Trk 06: e63b71e1d082ef0a0b4badc3932fadef81ebc441
REM Trk 07: 115166587d7ca8484cb567c23d5c3d1601520f40
REM Trk 08: 984f58a2dc3b7107d3efaa4938141fd1584617d7
REM Trk 09: 97fd79ff94d54c0be757ff07d38f5cdd78ad07f1
REM Trk 10: 535c44b1a6ef3920a1f21bcff33823e969f77304

